<svg id="visual" viewBox="0 0 960 400" width="960" height="400" xmlns="http://www.w3.org/2000/svg" xmlns:xlink="http://www.w3.org/1999/xlink" version="1.1"><path d="M0 299L22.8 303.7C45.7 308.3 91.3 317.7 137 325.2C182.7 332.7 228.3 338.3 274 339.8C319.7 341.3 365.3 338.7 411.2 324.7C457 310.7 503 285.3 548.8 283.5C594.7 281.7 640.3 303.3 686 316C731.7 328.7 777.3 332.3 823 336C868.7 339.7 914.3 343.3 937.2 345.2L960 347L960 0L937.2 0C914.3 0 868.7 0 823 0C777.3 0 731.7 0 686 0C640.3 0 594.7 0 548.8 0C503 0 457 0 411.2 0C365.3 0 319.7 0 274 0C228.3 0 182.7 0 137 0C91.3 0 45.7 0 22.8 0L0 0Z" fill="#c62368"></path><path d="M0 289L22.8 279.5C45.7 270 91.3 251 137 242C182.7 233 228.3 234 274 238.3C319.7 242.7 365.3 250.3 411.2 257C457 263.7 503 269.3 548.8 260.7C594.7 252 640.3 229 686 222.7C731.7 216.3 777.3 226.7 823 227.8C868.7 229 914.3 221 937.2 217L960 213L960 0L937.2 0C914.3 0 868.7 0 823 0C777.3 0 731.7 0 686 0C640.3 0 594.7 0 548.8 0C503 0 457 0 411.2 0C365.3 0 319.7 0 274 0C228.3 0 182.7 0 137 0C91.3 0 45.7 0 22.8 0L0 0Z" fill="#d53867"></path><path d="M0 154L22.8 155.2C45.7 156.3 91.3 158.7 137 164.8C182.7 171 228.3 181 274 179.3C319.7 177.7 365.3 164.3 411.2 161.8C457 159.3 503 167.7 548.8 174.8C594.7 182 640.3 188 686 185.3C731.7 182.7 777.3 171.3 823 171.2C868.7 171 914.3 182 937.2 187.5L960 193L960 0L937.2 0C914.3 0 868.7 0 823 0C777.3 0 731.7 0 686 0C640.3 0 594.7 0 548.8 0C503 0 457 0 411.2 0C365.3 0 319.7 0 274 0C228.3 0 182.7 0 137 0C91.3 0 45.7 0 22.8 0L0 0Z" fill="#e34c67"></path><path d="M0 152L22.8 147.8C45.7 143.7 91.3 135.3 137 131.5C182.7 127.7 228.3 128.3 274 133.5C319.7 138.7 365.3 148.3 411.2 152.2C457 156 503 154 548.8 154.3C594.7 154.7 640.3 157.3 686 151.3C731.7 145.3 777.3 130.7 823 128.7C868.7 126.7 914.3 137.3 937.2 142.7L960 148L960 0L937.2 0C914.3 0 868.7 0 823 0C777.3 0 731.7 0 686 0C640.3 0 594.7 0 548.8 0C503 0 457 0 411.2 0C365.3 0 319.7 0 274 0C228.3 0 182.7 0 137 0C91.3 0 45.7 0 22.8 0L0 0Z" fill="#ef5f67"></path><path d="M0 52L22.8 50C45.7 48 91.3 44 137 43.5C182.7 43 228.3 46 274 53.3C319.7 60.7 365.3 72.3 411.2 73.7C457 75 503 66 548.8 62.8C594.7 59.7 640.3 62.3 686 58.3C731.7 54.3 777.3 43.7 823 48.3C868.7 53 914.3 73 937.2 83L960 93L960 0L937.2 0C914.3 0 868.7 0 823 0C777.3 0 731.7 0 686 0C640.3 0 594.7 0 548.8 0C503 0 457 0 411.2 0C365.3 0 319.7 0 274 0C228.3 0 182.7 0 137 0C91.3 0 45.7 0 22.8 0L0 0Z" fill="#fa7268"></path></svg>